<?xml version="1.0" encoding="utf-8"?>
<svg version="1.1" 
	xmlns="http://www.w3.org/2000/svg" 
	xmlns:xlink="http://www.w3.org/1999/xlink" x="0px" y="0px" viewBox="0 0 905 390" style="enable-background:new 0 0 905 390;" xml:space="preserve">
	<g>
		<rect x="133.2" y="156.58" width="5.79" height="76"/>
		<polygon points="215.3,220.94 157.05,153.81 157.05,232.58 162.84,232.58 162.84,169.33 221.09,236.46 221.09,156.58 215.3,156.58"/>
		<polygon points="228.74,162.27 257.46,162.27 257.46,232.58 263.25,232.58 263.25,162.27 291.98,162.27 291.98,156.47 
		228.74,156.47"/>
		<path d="M735.83,153.87l-0.64-0.01v0c-8.4,0.11-15.71,2.49-21.74,7.06c-9.06,6.86-14.91,21.28-14.91,36.75
		c0,23.32,14.29,37.8,37.29,37.8h1.45v-0.03c16.22-0.58,28.43-10.77,33.76-21.18h-6.71c-5.24,7.94-15.54,15.41-28.5,15.41
		c-18.43,0-29.92-10.45-31.34-28.17h67.19v-3.84h0.13C771.8,176.1,759.45,154.26,735.83,153.87z M704.37,195.72
		c0.46-12.78,5.4-24.73,12.57-30.17c5.08-3.85,11.31-5.82,18.54-5.88c19.34,0.18,29.78,17.92,30.48,36.06H704.37z"/>
		<polygon points="485.66,156.02 452.99,222.85 419.07,156.02 412.57,156.02 453.09,235.84 492.11,156.02"/>
		<path d="M521.77,153.87l-0.64-0.01v0c-8.4,0.11-15.71,2.49-21.74,7.06c-1.4,1.06-2.72,2.26-3.95,3.54l2.74,5.62
		c1.41-1.71,2.99-3.24,4.72-4.55c5.08-3.85,11.31-5.82,18.55-5.88c19.34,0.18,29.78,17.92,30.48,36.06h-67.32v1.96h-0.11
		c0,1.11,0.04,2.2,0.11,3.27v0.56h0.03c1.5,21.05,15.44,33.96,37.15,33.96h1.45v-0.03c14.74-0.52,28.31-8.88,34.07-21.15l-0.06-0.03
		h-6.5c-4.9,8.01-15.22,15.41-28.96,15.41c-18.43,0-29.92-10.45-31.34-28.17h67.19v-3.84h0.13
		C557.75,176.1,545.39,154.26,521.77,153.87z"/>
		<path d="M686.43,196.62c-7.82-5.98-16.91-5.92-25.69-5.86c-8.01,0.06-15.57,0.11-21.02-4.73c-4.81-4.27-6.04-10.66-3.13-16.28
		c3.35-6.47,12.19-10.23,23.63-10.1c9.73,0.12,21.16,6.62,25.16,9.74c0.15,0.12,0.33,0.25,0.49,0.37l2.58-5.31
		c-5.58-4.18-17.67-10.46-28.16-10.59c-19.74-0.27-26.75,9.17-28.85,13.23c-4.17,8.04-2.43,17.18,4.42,23.27
		c7.11,6.32,16.16,6.26,24.91,6.2c8.18-0.06,15.89-0.11,22.13,4.66c4.68,3.58,4.41,11.97,2.7,15.35
		c-6.59,13.02-38.35,16.11-54.91,8.38c-19.64-9.16-32.06-17.2-38.97-22.26c6.73-0.02,15.62-1.21,21.84-6.4
		c4.86-4.05,7.32-9.82,7.32-17.15c0-10.36-4.63-22.7-26.69-22.7c-14.24,0-27.33-0.14-27.46-0.14l0.05,76.37h5.79v-70.53
		c5.14,0.04,13.14,0.09,21.62,0.09c18.73,0,20.9,9.65,20.9,16.9c0,5.6-1.71,9.75-5.23,12.69c-8.96,7.49-26.47,4.44-26.64,4.41
		l-2.57,4.9c0.53,0.52,13.27,13.03,47.59,29.05c6.63,3.09,15.54,4.76,24.71,4.76c3.35,0,6.74-0.22,10.06-0.68
		c13.75-1.9,23.87-7.4,27.76-15.1C693.71,213.4,693.47,202.01,686.43,196.62z"/>
		<path d="M378.01,153.54c-9.87,0-18.94,3.54-26,9.42l2.21,5.78c6.25-5.83,14.61-9.4,23.79-9.4c19.3,0,35.01,15.78,35.01,35.17
		s-15.75,35.19-35.05,35.19c-0.21,0-0.4,0.01-0.74,0.01c-8.49,0-16.76-1.71-23.28-4.75c-19.54-9.12-33.19-17.14-41.21-22.26
		c0.09,0,0.19,0,0.28,0c8.7,0,20.51-1.35,27.9-7.71c4.6-3.96,6.93-9.29,6.93-15.84c0-10.36-4.63-22.7-26.69-22.7
		c-14.22,0-21.64,0.02-21.64,0.02l0.01,5.79c0.07,0,7.34-0.02,21.63-0.02c18.73,0,20.9,9.65,20.9,16.9c0,4.85-1.61,8.6-4.91,11.44
		c-10.55,9.09-34.15,5.68-34.38,5.65l-2.21,5.16c0.67,0.52,16.78,12.87,50.94,28.81c6.68,3.12,14.6,4.9,23.05,5.21
		c0.82,0.06,2.62,0.05,3.46,0.05c22.5,0,40.8-18.38,40.8-40.97S400.51,153.54,378.01,153.54z"/>
	</g>
</svg>
