<?xml version="1.0" encoding="utf-8"?>
<svg version="1.1" 
    xmlns="http://www.w3.org/2000/svg" 
    xmlns:xlink="http://www.w3.org/1999/xlink" x="0px" y="0px" viewBox="0 0 320 246" style="enable-background:new 0 0 320 246;" xml:space="preserve">
    <g>
        <path d="M103.45,25.82h-44.6c-4.4,0-7.96,3.57-7.96,7.96c0,4.4,3.57,7.96,7.96,7.96h1.71
    c-0.33,0.88-0.52,1.83-0.52,2.82c0,4.4,3.57,7.96,7.96,7.96h24.88c4.4,0,7.96-3.57,7.96-7.96c0-0.99-0.19-1.94-0.52-2.82h3.12
    c4.4,0,7.96-3.57,7.96-7.96C111.41,29.39,107.85,25.82,103.45,25.82z" fill="#EDF5FF" />
        <g>
            <path d="M140.86,23.03h-35.58c-3.02,0-5.47-2.45-5.47-5.47s2.45-5.47,5.47-5.47h35.58c3.02,0,5.47,2.45,5.47,5.47
        S143.89,23.03,140.86,23.03z" fill="#EDF5FF" />
        </g>
        <g>
            <path d="M252.64,33.08h-29.86c-3.02,0-5.47-2.45-5.47-5.47s2.45-5.47,5.47-5.47h29.86c3.02,0,5.47,2.45,5.47,5.47
        S255.67,33.08,252.64,33.08z" fill="#EDF5FF" />
        </g>
        <g>
            <path d="M156.54,10.46h-35.58c-2.2,0-3.98-1.78-3.98-3.98s1.78-3.98,3.98-3.98h35.58c2.2,0,3.98,1.78,3.98,3.98
        S158.74,10.46,156.54,10.46z" fill="#EDF5FF" />
        </g>
        <g>
            <path d="M216.85,20.91h-8.02c-2.2,0-3.98-1.78-3.98-3.98s1.78-3.98,3.98-3.98h8.02c2.2,0,3.98,1.78,3.98,3.98
        S219.05,20.91,216.85,20.91z" fill="#EDF5FF" />
        </g>
        <g>
            <path d="M191.92,43.26c-2.47,0-4.48-2.01-4.48-4.48s2.01-4.48,4.48-4.48c2.47,0,4.48,2.01,4.48,4.48
        S194.39,43.26,191.92,43.26z M191.92,37.29c-0.82,0-1.49,0.67-1.49,1.49s0.67,1.49,1.49,1.49c0.82,0,1.49-0.67,1.49-1.49
        S192.74,37.29,191.92,37.29z" fill="#DDECFF" />
        </g>
        <g>
            <path d="M132.45,134.13H98.66c-2.74,0-4.98-2.23-4.98-4.98V87.59c0-1.1-0.89-1.99-1.99-1.99
        c-1.1,0-1.99,0.89-1.99,1.99v5.19H71.33c-2.31,0-4.25-1.6-4.8-3.74h5.09c4.39,0,7.96-3.26,7.96-7.27v-1.22
        c1.57-0.7,2.67-2.26,2.67-4.09c0-2.47-2.01-4.48-4.48-4.48s-4.48,2.01-4.48,4.48c0,1.68,0.94,3.13,2.31,3.89v1.41
        c0,1.81-1.79,3.29-3.98,3.29h-5.27V70.39c1.6-0.68,2.73-2.27,2.73-4.12c0-2.47-2.01-4.48-4.48-4.48c-2.47,0-4.48,2.01-4.48,4.48
        c0,1.65,0.91,3.08,2.24,3.86V87.8c0,4.94,4.02,8.96,8.96,8.96H89.7v30.27h-6.96c-0.55,0-1-0.45-1-1v-7.81
        c0-1.1-0.89-1.99-1.99-1.99c-1.1,0-1.99,0.89-1.99,1.99v7.81c0,2.74,2.23,4.98,4.98,4.98h7.16c0.86,4.05,4.46,7.1,8.76,7.1h33.79
        c4.94,0,8.96,4.02,8.96,8.96v17.05h-11.34c-2.07,0-3.38-0.51-3.98-0.84v-2.33c1.49-0.73,2.52-2.24,2.52-4.01
        c0-2.47-2.01-4.48-4.48-4.48c-2.47,0-4.48,2.01-4.48,4.48c0,1.74,1,3.23,2.45,3.97v3.14c0,2.23,3.57,4.05,7.96,4.05h11.34v59.57
        c0,1.1,0.89,1.99,1.99,1.99c1.1,0,1.99-0.89,1.99-1.99v-80.61C145.39,139.94,139.58,134.13,132.45,134.13z M77.77,74.97
        c0.82,0,1.49,0.67,1.49,1.49c0,0.82-0.67,1.49-1.49,1.49c-0.82,0-1.49-0.67-1.49-1.49C76.27,75.64,76.94,74.97,77.77,74.97z
         M64.6,64.77c0.82,0,1.49,0.67,1.49,1.49c0,0.82-0.67,1.49-1.49,1.49c-0.82,0-1.49-0.67-1.49-1.49
        C63.11,65.44,63.78,64.77,64.6,64.77z M124.13,155.45c0.82,0,1.49,0.67,1.49,1.49c0,0.82-0.67,1.49-1.49,1.49
        c-0.82,0-1.49-0.67-1.49-1.49C122.63,156.12,123.3,155.45,124.13,155.45z" fill="#DDECFF" />
            <path d="M270,86.25c0-2.47-2.01-4.48-4.48-4.48s-4.48,2.01-4.48,4.48c0,1.82,1.09,3.38,2.65,4.08v9.47
        c0,4.94-4.02,8.96-8.96,8.96h-19.54c-0.32,0-0.63,0.04-0.93,0.09V93.19c0.14-0.38,0.5-0.65,0.93-0.65h8.36
        c5.49,0,9.95-4.47,9.95-9.95V69.11c1.38-0.76,2.33-2.22,2.33-3.9c0-2.47-2.01-4.48-4.48-4.48s-4.48,2.01-4.48,4.48
        c0,1.82,1.09,3.38,2.65,4.08v13.29c0,3.29-2.68,5.97-5.97,5.97h-8.36c-0.32,0-0.63,0.04-0.93,0.09v-2.79v-6.17v-8.5
        c0-1.1-0.89-1.99-1.99-1.99c-1.1,0-1.99,0.89-1.99,1.99v5.51h-6.04c-2.74,0-4.98-2.23-4.98-4.98v-2.85h4.92
        c3.33,0,6.03-4.02,6.03-8.96V48.21c1.33-0.78,2.24-2.21,2.24-3.86c0-2.47-2.01-4.48-4.48-4.48s-4.48,2.01-4.48,4.48
        c0,1.85,1.13,3.44,2.74,4.13v11.44c0,3.16-1.53,4.94-2.05,4.98h-4.92V54.05c0-1.1-0.89-1.99-1.99-1.99c-1.1,0-1.99,0.89-1.99,1.99
        v17.67c0,4.94,4.02,8.96,8.96,8.96h6.04v5.18v6.99c-0.03,0.23-0.07,0.45-0.07,0.68v8.03h0.07v11.5c-0.03,0.22-0.07,0.44-0.07,0.67
        v7.17h0.07v18.74c0,2.74-2.23,4.98-4.98,4.98h-37.84c-7.13,0-12.94,5.8-12.94,12.94v70.11c0,1.1,0.89,1.99,1.99,1.99
        c1.1,0,1.99-0.89,1.99-1.99v-29.81h16.93c7.5,0,12.94-3.58,12.94-8.5v-4.16c1.67-0.65,2.86-2.27,2.86-4.16
        c0-2.47-2.01-4.48-4.48-4.48s-4.48,2.01-4.48,4.48c0,1.6,0.85,3,2.12,3.79c0,0,0,0.01,0,0.01v4.52c0,2.49-4.02,4.52-8.96,4.52
        h-0.35v-16.67c1.46-0.74,2.48-2.24,2.48-3.98c0-2.47-2.01-4.48-4.48-4.48s-4.48,2.01-4.48,4.48c0,1.76,1.03,3.26,2.5,4v16.66
        h-12.6v-36.32c0-4.94,4.02-8.96,8.96-8.96h37.84c4.94,0,8.96-4.02,8.96-8.96V113.4c0.14-0.38,0.5-0.66,0.93-0.66h19.54
        c7.13,0,12.94-5.8,12.94-12.94v-9.64C269.05,89.39,270,87.94,270,86.25z M251.35,63.72c0.82,0,1.49,0.67,1.49,1.49
        c0,0.82-0.67,1.49-1.49,1.49c-0.82,0-1.49-0.67-1.49-1.49C249.85,64.39,250.52,63.72,251.35,63.72z M227.98,42.86
        c0.82,0,1.49,0.67,1.49,1.49c0,0.82-0.67,1.49-1.49,1.49s-1.49-0.67-1.49-1.49C226.48,43.53,227.15,42.86,227.98,42.86z
         M206.76,179.54c0.82,0,1.49,0.67,1.49,1.49c0,0.82-0.67,1.49-1.49,1.49s-1.49-0.67-1.49-1.49
        C205.27,180.21,205.94,179.54,206.76,179.54z M193.09,171.73c0.82,0,1.49,0.67,1.49,1.49s-0.67,1.49-1.49,1.49
        c-0.82,0-1.49-0.67-1.49-1.49S192.27,171.73,193.09,171.73z M265.52,84.76c0.82,0,1.49,0.67,1.49,1.49c0,0.82-0.67,1.49-1.49,1.49
        s-1.49-0.67-1.49-1.49C264.03,85.43,264.7,84.76,265.52,84.76z" fill="#DDECFF" />
            <path d="M223.6,127.18v-11.81c0-7.26-4.53-12.94-10.32-12.94h-2.35V87.77c1.62-0.67,2.76-2.27,2.76-4.14
        c0-2.47-2.01-4.48-4.48-4.48c-2.47,0-4.48,2.01-4.48,4.48c0,1.64,0.89,3.06,2.21,3.84v16.94c0,1.1,0.89,1.99,1.99,1.99h4.34
        c3.55,0,6.34,3.93,6.34,8.96v11.81c0,4.94-4.02,8.96-8.96,8.96H198.1v-26.5c1.6-0.68,2.73-2.27,2.73-4.12
        c0-2.47-2.01-4.48-4.48-4.48s-4.48,2.01-4.48,4.48c0,1.65,0.91,3.08,2.25,3.86v26.76h-21.8c-4.94,0-8.96,4.02-8.96,8.96v48.58
        c0,1.1,0.89,1.99,1.99,1.99c1.1,0,1.99-0.89,1.99-1.99v-48.58c0-2.74,2.23-4.98,4.98-4.98h38.34
        C217.8,140.12,223.6,134.31,223.6,127.18z M209.22,82.15c0.82,0,1.49,0.67,1.49,1.49c0,0.82-0.67,1.49-1.49,1.49
        c-0.82,0-1.49-0.67-1.49-1.49C207.72,82.82,208.39,82.15,209.22,82.15z M196.35,104.02c0.82,0,1.49,0.67,1.49,1.49
        c0,0.82-0.67,1.49-1.49,1.49c-0.82,0-1.49-0.67-1.49-1.49C194.86,104.69,195.53,104.02,196.35,104.02z" fill="#DDECFF" />
            <path d="M171.67,97.79v38.34h3.98V84.3c0-2.74,2.23-4.98,4.98-4.98h6.35c3.84,0,6.97-3.13,6.97-6.97V43.2h-3.98v20.95
        h-5.2v-8.53c1.49-0.73,2.52-2.24,2.52-4.01c0-2.47-2.01-4.48-4.48-4.48s-4.48,2.01-4.48,4.48c0,1.74,1,3.23,2.45,3.97v8.57
        c0,2.2,1.79,3.98,3.98,3.98h5.2v4.22c0,1.65-1.34,2.99-2.99,2.99h-6.35c-4.94,0-8.96,4.02-8.96,8.96v9.5h-8.22
        c-1.65,0-2.99-1.34-2.99-2.99v-9.95c1.56-0.7,2.65-2.26,2.65-4.08c0-2.47-2.01-4.48-4.48-4.48c-2.47,0-4.48,2.01-4.48,4.48
        c0,1.69,0.95,3.14,2.33,3.9v10.13c0,3.84,3.13,6.97,6.97,6.97H171.67z M182.81,50.12c0.82,0,1.49,0.67,1.49,1.49
        c0,0.82-0.67,1.49-1.49,1.49c-0.82,0-1.49-0.67-1.49-1.49C181.32,50.79,181.99,50.12,182.81,50.12z M158.64,75.29
        c0.82,0,1.49,0.67,1.49,1.49c0,0.82-0.67,1.49-1.49,1.49c-0.82,0-1.49-0.67-1.49-1.49C157.15,75.96,157.82,75.29,158.64,75.29z" fill="#DDECFF" />
            <path d="M151.65,118.87h-1.09v-12.74c1.47-0.74,2.49-2.24,2.49-3.99c0-2.47-2.01-4.48-4.48-4.48s-4.48,2.01-4.48,4.48
        c0,1.75,1.02,3.26,2.49,3.99v12.74h-3.58c-0.89,0-1.75-0.13-2.56-0.38v-0.04h-0.15c-3.62-1.15-6.25-4.54-6.25-8.54V85.48
        c0-0.15-0.02-0.29-0.05-0.43c1.47-0.73,2.5-2.24,2.5-4c0-2.47-2.01-4.48-4.48-4.48s-4.48,2.01-4.48,4.48
        c0,1.78,1.05,3.31,2.57,4.03c-0.03,0.13-0.04,0.26-0.04,0.39v7.15h-7.12c-1.65,0-2.99-1.21-2.99-2.69V70.9h5.27
        c4.39,0,7.96-3.26,7.96-7.27V62.1c1.45-0.74,2.45-2.24,2.45-3.97c0-2.47-2.01-4.48-4.48-4.48s-4.48,2.01-4.48,4.48
        c0,1.77,1.04,3.28,2.52,4.01v1.49c0,1.81-1.79,3.29-3.98,3.29h-5.27V50.49c1.49-0.73,2.52-2.24,2.52-4.01
        c0-2.47-2.01-4.48-4.48-4.48c-2.47,0-4.48,2.01-4.48,4.48c0,1.74,1,3.23,2.45,3.97v39.48c0,3.68,3.13,6.67,6.97,6.67h7.12v13.3
        c0,3.27,1.23,6.26,3.24,8.54h-21.37c-2.7,0-4.98-1.77-4.98-3.87v-6.91c1.56-0.7,2.65-2.26,2.65-4.08c0-2.47-2.01-4.48-4.48-4.48
        c-2.47,0-4.48,2.01-4.48,4.48c0,1.69,0.95,3.14,2.33,3.9v7.09c0,4.33,4.02,7.85,8.96,7.85h27.85c1.03,0.27,2.1,0.42,3.22,0.42
        h8.66c0.55,0,1,0.45,1,1v86.2c0,1.1,0.89,1.99,1.99,1.99c1.1,0,1.99-0.89,1.99-1.99v-86.2
        C156.63,121.1,154.39,118.87,151.65,118.87z M148.56,100.64c0.82,0,1.49,0.67,1.49,1.49c0,0.82-0.67,1.49-1.49,1.49
        s-1.49-0.67-1.49-1.49C147.07,101.31,147.74,100.64,148.56,100.64z M131.15,56.63c0.82,0,1.49,0.67,1.49,1.49
        c0,0.82-0.67,1.49-1.49,1.49c-0.82,0-1.49-0.67-1.49-1.49C129.66,57.3,130.33,56.63,131.15,56.63z M117.99,44.99
        c0.82,0,1.49,0.67,1.49,1.49c0,0.82-0.67,1.49-1.49,1.49c-0.82,0-1.49-0.67-1.49-1.49C116.49,45.66,117.16,44.99,117.99,44.99z
         M132,79.56c0.82,0,1.49,0.67,1.49,1.49s-0.67,1.49-1.49,1.49s-1.49-0.67-1.49-1.49S131.18,79.56,132,79.56z M105.12,102.1
        c0.82,0,1.49,0.67,1.49,1.49s-0.67,1.49-1.49,1.49c-0.82,0-1.49-0.67-1.49-1.49S104.3,102.1,105.12,102.1z" fill="#DDECFF" />
        </g>
        <path d="M125.03,225.61H69.12c-1.92,0-3.48,1.56-3.48,3.48c0,1.2,0.61,2.26,1.54,2.89H53.48
    c-1.92,0-3.48,1.56-3.48,3.48c0,1.92,1.56,3.48,3.48,3.48h44.6c1.92,0,3.48-1.56,3.48-3.48c0-1.2-0.61-2.26-1.54-2.89h25
    c1.92,0,3.48-1.56,3.48-3.48C128.52,227.17,126.96,225.61,125.03,225.61z" fill="#EDF5FF" />
        <g>
            <path d="M135.89,242.5h-15.93c-1.92,0-3.48-1.56-3.48-3.48c0-1.92,1.56-3.48,3.48-3.48h15.93
        c1.92,0,3.48,1.56,3.48,3.48C139.38,240.94,137.82,242.5,135.89,242.5z" fill="#EDF5FF" />
        </g>
        <g>
            <path d="M81.72,184.68c1.36-2.79,3.68-4.59,7.1-5.53c3.28-0.9,6.14-0.65,8.49,0.72c4.38,2.56,6.24,8.39,6.95,11.54
        H87.4l-1.98,19.41C82.38,203.99,78.14,192,81.72,184.68 M129.76,194.84c-1.43-3.27-3.43-5.69-4.49-5.4
        c-0.15,0.04-0.28,0.14-0.37,0.28c-1.62,1.38-3.71,3.76-3.34,6.62l-10.77,9.02l-1.5-13.95h-2.74c-0.69-3.33-2.71-10.09-7.99-13.17
        c-2.94-1.72-6.44-2.05-10.39-0.96c-4.02,1.1-6.87,3.33-8.48,6.63c-4.7,9.63,2.56,25.72,5.3,31.15l-1.25,12.18h29.39l-0.87-8.09
        l11.08-19.36c1.96,1.78,4.89,1.78,6.89,1.51c0.07,0,0.14,0,0.2-0.02C131.49,200.99,131.19,198.11,129.76,194.84" fill="#DBEBFF" />
        </g>
    </g>
</svg>
